<svg xmlns="http://www.w3.org/2000/svg" xmlns:xlink="http://www.w3.org/1999/xlink" width="500" zoomAndPan="magnify" viewBox="0 0 375 374.999991" height="500" preserveAspectRatio="xMidYMid meet" version="1.0"><defs><clipPath id="fd925b4867"><path d="M 140 50.28125 L 235 50.28125 L 235 129 L 140 129 Z M 140 50.28125 " clip-rule="nonzero"/></clipPath><clipPath id="2c8f26c25a"><path d="M 202 136 L 324.78125 136 L 324.78125 324.78125 L 202 324.78125 Z M 202 136 " clip-rule="nonzero"/></clipPath><clipPath id="700fbc5c68"><path d="M 50.28125 136 L 173 136 L 173 324.78125 L 50.28125 324.78125 Z M 50.28125 136 " clip-rule="nonzero"/></clipPath></defs><g clip-path="url(#fd925b4867)"><path fill="#ffffff" d="M 233.539062 82.566406 C 234.070312 80.0625 234.332031 77.527344 234.324219 74.964844 C 234.320312 74.160156 234.277344 73.351562 234.195312 72.550781 C 234.113281 71.746094 233.988281 70.949219 233.828125 70.160156 C 233.667969 69.367188 233.46875 68.585938 233.230469 67.816406 C 232.992188 67.042969 232.714844 66.285156 232.40625 65.542969 C 232.09375 64.796875 231.746094 64.070312 231.363281 63.359375 C 230.976562 62.648438 230.5625 61.960938 230.109375 61.289062 C 229.660156 60.621094 229.175781 59.976562 228.660156 59.351562 C 228.148438 58.730469 227.605469 58.136719 227.03125 57.566406 C 226.457031 56.996094 225.859375 56.457031 225.234375 55.949219 C 224.609375 55.4375 223.957031 54.960938 223.285156 54.511719 C 222.613281 54.066406 221.921875 53.652344 221.207031 53.273438 C 220.496094 52.894531 219.765625 52.554688 219.019531 52.246094 C 218.273438 51.9375 217.511719 51.667969 216.738281 51.4375 C 215.964844 51.203125 215.183594 51.007812 214.390625 50.855469 C 213.601562 50.699219 212.800781 50.582031 212 50.503906 C 211.195312 50.425781 210.390625 50.386719 209.582031 50.386719 C 207.5 50.382812 205.4375 50.597656 203.398438 51.027344 C 201.363281 51.453125 199.390625 52.089844 197.484375 52.933594 C 195.582031 53.777344 193.785156 54.808594 192.097656 56.03125 C 190.410156 57.253906 188.867188 58.636719 187.46875 60.179688 C 186.074219 58.636719 184.53125 57.253906 182.84375 56.03125 C 181.15625 54.8125 179.359375 53.777344 177.453125 52.933594 C 175.550781 52.089844 173.578125 51.457031 171.539062 51.027344 C 169.5 50.597656 167.441406 50.382812 165.355469 50.386719 C 164.550781 50.386719 163.742188 50.425781 162.941406 50.5 C 162.136719 50.578125 161.335938 50.695312 160.546875 50.851562 C 159.753906 51.007812 158.96875 51.199219 158.195312 51.433594 C 157.421875 51.664062 156.664062 51.933594 155.914062 52.242188 C 155.167969 52.546875 154.4375 52.890625 153.726562 53.269531 C 153.011719 53.648438 152.316406 54.058594 151.644531 54.507812 C 150.972656 54.953125 150.324219 55.429688 149.695312 55.941406 C 149.070312 56.453125 148.472656 56.992188 147.898438 57.558594 C 147.324219 58.128906 146.78125 58.726562 146.265625 59.347656 C 145.75 59.96875 145.269531 60.617188 144.816406 61.285156 C 144.367188 61.953125 143.949219 62.644531 143.5625 63.355469 C 143.179688 64.066406 142.832031 64.792969 142.519531 65.539062 C 142.207031 66.28125 141.933594 67.042969 141.695312 67.8125 C 141.457031 68.585938 141.257812 69.367188 141.09375 70.15625 C 140.933594 70.949219 140.8125 71.746094 140.730469 72.550781 C 140.644531 73.351562 140.601562 74.15625 140.597656 74.964844 C 140.59375 77.527344 140.863281 80.0625 141.402344 82.566406 C 148.515625 115.585938 184.683594 127.921875 186.222656 128.433594 C 187.0625 128.71875 187.90625 128.71875 188.75 128.433594 C 190.269531 127.921875 226.441406 115.585938 233.539062 82.566406 Z M 187.46875 120.339844 C 181.316406 117.925781 154.6875 106.148438 149.238281 80.867188 C 148.828125 78.925781 148.625 76.960938 148.632812 74.976562 C 148.636719 74.433594 148.667969 73.890625 148.722656 73.347656 C 148.78125 72.804688 148.863281 72.269531 148.972656 71.734375 C 149.082031 71.203125 149.21875 70.675781 149.378906 70.152344 C 149.539062 69.632812 149.726562 69.125 149.9375 68.621094 C 150.148438 68.121094 150.386719 67.628906 150.644531 67.148438 C 150.902344 66.671875 151.1875 66.207031 151.492188 65.753906 C 151.796875 65.304688 152.121094 64.867188 152.46875 64.449219 C 152.816406 64.03125 153.183594 63.628906 153.574219 63.246094 C 153.960938 62.863281 154.363281 62.5 154.785156 62.15625 C 155.210938 61.8125 155.648438 61.492188 156.101562 61.191406 C 156.554688 60.890625 157.023438 60.613281 157.503906 60.359375 C 157.988281 60.101562 158.480469 59.871094 158.984375 59.667969 C 159.488281 59.460938 160 59.277344 160.523438 59.121094 C 161.042969 58.964844 161.570312 58.835938 162.105469 58.730469 C 162.640625 58.628906 163.179688 58.550781 163.722656 58.5 C 164.261719 58.445312 164.808594 58.421875 165.351562 58.425781 C 167.019531 58.421875 168.671875 58.605469 170.296875 58.984375 C 171.925781 59.359375 173.488281 59.914062 174.988281 60.648438 C 176.488281 61.386719 177.882812 62.28125 179.175781 63.335938 C 180.472656 64.394531 181.628906 65.582031 182.648438 66.902344 L 184.3125 69.046875 C 184.5 69.289062 184.714844 69.507812 184.953125 69.699219 C 185.1875 69.894531 185.445312 70.054688 185.71875 70.191406 C 185.996094 70.324219 186.28125 70.429688 186.578125 70.496094 C 186.878906 70.566406 187.179688 70.601562 187.484375 70.601562 C 187.792969 70.601562 188.09375 70.566406 188.390625 70.496094 C 188.691406 70.429688 188.976562 70.324219 189.25 70.191406 C 189.527344 70.054688 189.78125 69.894531 190.019531 69.699219 C 190.257812 69.507812 190.46875 69.289062 190.65625 69.046875 L 192.324219 66.902344 C 193.339844 65.585938 194.496094 64.398438 195.785156 63.34375 C 197.078125 62.289062 198.472656 61.390625 199.96875 60.65625 C 201.464844 59.921875 203.023438 59.367188 204.648438 58.988281 C 206.269531 58.613281 207.914062 58.421875 209.582031 58.425781 C 210.128906 58.421875 210.671875 58.445312 211.210938 58.496094 C 211.753906 58.546875 212.292969 58.625 212.828125 58.730469 C 213.363281 58.835938 213.890625 58.964844 214.414062 59.121094 C 214.933594 59.277344 215.449219 59.457031 215.953125 59.664062 C 216.457031 59.867188 216.949219 60.097656 217.429688 60.355469 C 217.910156 60.609375 218.378906 60.886719 218.835938 61.1875 C 219.289062 61.484375 219.726562 61.808594 220.148438 62.152344 C 220.574219 62.496094 220.976562 62.859375 221.363281 63.242188 C 221.75 63.625 222.121094 64.023438 222.46875 64.445312 C 222.816406 64.863281 223.140625 65.296875 223.445312 65.75 C 223.75 66.199219 224.035156 66.664062 224.292969 67.144531 C 224.554688 67.625 224.789062 68.113281 225 68.617188 C 225.210938 69.117188 225.398438 69.628906 225.558594 70.148438 C 225.71875 70.667969 225.855469 71.195312 225.964844 71.730469 C 226.074219 72.261719 226.160156 72.800781 226.214844 73.339844 C 226.273438 73.882812 226.304688 74.425781 226.304688 74.972656 C 226.3125 76.957031 226.109375 78.921875 225.703125 80.863281 C 220.253906 106.152344 193.613281 117.933594 187.46875 120.339844 Z M 187.46875 120.339844 " fill-opacity="1" fill-rule="nonzero"/></g><g clip-path="url(#2c8f26c25a)"><path fill="#ffffff" d="M 322.285156 298.675781 L 289.464844 283.371094 L 278.78125 254.015625 C 279.765625 253.527344 280.730469 252.996094 281.664062 252.417969 C 282.601562 251.84375 283.511719 251.226562 284.390625 250.566406 C 285.273438 249.90625 286.121094 249.207031 286.9375 248.46875 C 287.753906 247.734375 288.535156 246.960938 289.28125 246.152344 C 290.027344 245.34375 290.734375 244.503906 291.40625 243.632812 C 292.074219 242.757812 292.703125 241.855469 293.289062 240.925781 C 293.878906 239.996094 294.421875 239.042969 294.921875 238.0625 C 295.421875 237.082031 295.875 236.082031 296.285156 235.058594 C 296.691406 234.039062 297.054688 233 297.367188 231.945312 C 297.679688 230.890625 297.945312 229.824219 298.164062 228.746094 C 298.378906 227.667969 298.546875 226.582031 298.664062 225.488281 C 298.78125 224.394531 298.847656 223.296875 298.867188 222.199219 C 298.882812 221.097656 298.851562 220 298.769531 218.902344 C 298.683594 217.804688 298.550781 216.714844 298.371094 215.628906 C 298.1875 214.546875 297.957031 213.472656 297.675781 212.40625 C 297.394531 211.34375 297.066406 210.292969 296.691406 209.261719 L 271.035156 138.777344 C 270.945312 138.527344 270.832031 138.292969 270.695312 138.066406 C 270.558594 137.84375 270.398438 137.632812 270.222656 137.4375 C 270.042969 137.242188 269.847656 137.070312 269.636719 136.914062 C 269.421875 136.757812 269.195312 136.625 268.957031 136.511719 C 268.71875 136.402344 268.472656 136.3125 268.214844 136.25 C 267.960938 136.1875 267.699219 136.152344 267.4375 136.140625 C 267.171875 136.128906 266.910156 136.140625 266.652344 136.183594 C 266.390625 136.222656 266.136719 136.285156 265.886719 136.375 L 255.816406 140.039062 C 255.570312 140.128906 255.332031 140.246094 255.109375 140.382812 C 254.882812 140.519531 254.671875 140.675781 254.476562 140.855469 C 254.285156 141.03125 254.109375 141.226562 253.953125 141.441406 C 253.796875 141.652344 253.664062 141.878906 253.550781 142.117188 C 253.441406 142.359375 253.355469 142.605469 253.292969 142.859375 C 253.230469 143.117188 253.191406 143.378906 253.179688 143.640625 C 253.167969 143.902344 253.183594 144.167969 253.222656 144.425781 C 253.261719 144.6875 253.328125 144.941406 253.417969 145.191406 C 253.507812 145.4375 253.621094 145.675781 253.757812 145.898438 C 253.894531 146.125 254.054688 146.335938 254.230469 146.53125 C 254.410156 146.722656 254.605469 146.898438 254.816406 147.054688 C 255.03125 147.210938 255.253906 147.34375 255.496094 147.457031 C 255.734375 147.566406 255.980469 147.65625 256.238281 147.71875 C 256.492188 147.78125 256.753906 147.820312 257.015625 147.832031 C 257.28125 147.84375 257.542969 147.828125 257.800781 147.789062 C 258.0625 147.75 258.316406 147.683594 258.566406 147.59375 L 264.859375 145.300781 L 280.929688 189.410156 C 275.539062 188.953125 270.277344 187.875 265.144531 186.171875 C 261.476562 184.949219 257.738281 184.011719 253.929688 183.355469 C 250.121094 182.695312 246.285156 182.332031 242.421875 182.253906 C 238.558594 182.179688 234.707031 182.394531 230.878906 182.902344 C 227.046875 183.410156 223.273438 184.199219 219.5625 185.277344 L 212.015625 164.546875 L 218.308594 162.261719 C 218.558594 162.171875 218.792969 162.054688 219.019531 161.917969 C 219.246094 161.78125 219.453125 161.625 219.648438 161.445312 C 219.84375 161.269531 220.019531 161.074219 220.175781 160.859375 C 220.332031 160.648438 220.464844 160.421875 220.578125 160.183594 C 220.6875 159.945312 220.777344 159.695312 220.839844 159.441406 C 220.902344 159.183594 220.9375 158.921875 220.949219 158.660156 C 220.960938 158.394531 220.945312 158.132812 220.90625 157.871094 C 220.867188 157.613281 220.800781 157.359375 220.710938 157.109375 C 220.621094 156.863281 220.507812 156.625 220.371094 156.398438 C 220.234375 156.175781 220.078125 155.964844 219.898438 155.769531 C 219.71875 155.574219 219.523438 155.398438 219.3125 155.242188 C 219.097656 155.085938 218.871094 154.953125 218.632812 154.84375 C 218.394531 154.730469 218.148438 154.644531 217.890625 154.582031 C 217.632812 154.519531 217.375 154.480469 217.109375 154.46875 C 216.847656 154.457031 216.585938 154.472656 216.324219 154.511719 C 216.0625 154.550781 215.808594 154.617188 215.5625 154.707031 L 205.488281 158.371094 C 205.242188 158.460938 205.003906 158.574219 204.78125 158.714844 C 204.554688 158.851562 204.34375 159.007812 204.148438 159.1875 C 203.957031 159.363281 203.78125 159.558594 203.625 159.773438 C 203.46875 159.984375 203.335938 160.210938 203.222656 160.453125 C 203.113281 160.691406 203.027344 160.9375 202.960938 161.195312 C 202.898438 161.449219 202.863281 161.710938 202.851562 161.976562 C 202.839844 162.238281 202.855469 162.5 202.894531 162.761719 C 202.933594 163.023438 203 163.277344 203.089844 163.523438 L 228.71875 233.992188 C 229.089844 235.027344 229.511719 236.046875 229.976562 237.042969 C 230.445312 238.039062 230.957031 239.015625 231.511719 239.964844 C 232.066406 240.914062 232.667969 241.835938 233.308594 242.734375 C 233.945312 243.628906 234.628906 244.492188 235.347656 245.324219 C 236.066406 246.160156 236.824219 246.957031 237.617188 247.722656 C 238.410156 248.484375 239.234375 249.210938 240.09375 249.898438 C 240.953125 250.585938 241.84375 251.234375 242.761719 251.839844 C 243.679688 252.449219 244.625 253.011719 245.597656 253.53125 C 246.566406 254.050781 247.558594 254.527344 248.574219 254.953125 C 249.585938 255.382812 250.617188 255.765625 251.667969 256.101562 C 252.714844 256.433594 253.777344 256.722656 254.855469 256.957031 C 255.929688 257.195312 257.011719 257.382812 258.105469 257.519531 C 259.199219 257.660156 260.292969 257.746094 261.394531 257.785156 C 262.496094 257.820312 263.59375 257.808594 264.695312 257.746094 C 265.792969 257.683594 266.886719 257.566406 267.976562 257.40625 C 269.0625 257.242188 270.144531 257.027344 271.210938 256.765625 L 281.894531 286.121094 L 266.589844 318.941406 C 266.445312 319.25 266.34375 319.566406 266.28125 319.898438 C 266.21875 320.230469 266.199219 320.566406 266.222656 320.902344 C 266.242188 321.238281 266.308594 321.570312 266.414062 321.890625 C 266.519531 322.210938 266.660156 322.515625 266.84375 322.800781 C 267.023438 323.085938 267.238281 323.34375 267.484375 323.574219 C 267.730469 323.804688 268.003906 324 268.300781 324.164062 C 268.59375 324.324219 268.90625 324.449219 269.234375 324.53125 C 269.5625 324.617188 269.894531 324.65625 270.230469 324.65625 C 270.707031 324.65625 271.164062 324.578125 271.609375 324.417969 L 321.964844 306.097656 C 322.335938 305.960938 322.683594 305.773438 323 305.535156 C 323.320312 305.296875 323.597656 305.019531 323.832031 304.699219 C 324.066406 304.378906 324.25 304.03125 324.382812 303.65625 C 324.515625 303.28125 324.589844 302.894531 324.609375 302.496094 C 324.625 302.097656 324.585938 301.707031 324.484375 301.324219 C 324.386719 300.9375 324.234375 300.574219 324.027344 300.234375 C 323.820312 299.894531 323.570312 299.59375 323.273438 299.328125 C 322.980469 299.0625 322.648438 298.84375 322.289062 298.675781 Z M 250.828125 247.117188 C 249.152344 246.34375 247.570312 245.410156 246.078125 244.320312 C 244.585938 243.226562 243.214844 242.003906 241.96875 240.640625 C 240.71875 239.277344 239.617188 237.804688 238.660156 236.222656 C 237.703125 234.644531 236.914062 232.984375 236.285156 231.246094 L 222.289062 192.878906 C 225.578125 191.953125 228.914062 191.277344 232.304688 190.847656 C 235.691406 190.417969 239.09375 190.246094 242.511719 190.324219 C 245.925781 190.40625 249.316406 190.738281 252.679688 191.328125 C 256.046875 191.914062 259.347656 192.746094 262.589844 193.828125 C 269.507812 196.125 276.609375 197.410156 283.890625 197.683594 L 289.113281 212.035156 C 289.589844 213.335938 289.964844 214.664062 290.238281 216.015625 C 290.515625 217.371094 290.695312 218.738281 290.769531 220.121094 C 290.84375 221.5 290.816406 222.878906 290.691406 224.257812 C 290.5625 225.632812 290.332031 226.992188 290.003906 228.335938 C 289.675781 229.679688 289.25 230.992188 288.730469 232.273438 C 288.207031 233.554688 287.59375 234.789062 286.890625 235.976562 C 286.183594 237.167969 285.398438 238.300781 284.523438 239.375 C 283.652344 240.449219 282.707031 241.453125 281.6875 242.386719 C 280.667969 243.320312 279.585938 244.175781 278.441406 244.949219 C 277.296875 245.722656 276.101562 246.410156 274.855469 247.007812 C 273.605469 247.605469 272.324219 248.109375 271.003906 248.519531 C 269.679688 248.929688 268.335938 249.238281 266.96875 249.449219 C 265.605469 249.660156 264.230469 249.769531 262.847656 249.777344 C 261.464844 249.785156 260.085938 249.691406 258.71875 249.496094 C 257.351562 249.300781 256.003906 249.003906 254.675781 248.613281 C 253.351562 248.21875 252.0625 247.730469 250.808594 247.144531 Z M 277.988281 313.542969 L 288.175781 291.648438 L 310.078125 301.859375 Z M 277.988281 313.542969 " fill-opacity="1" fill-rule="nonzero"/></g><path fill="#ffffff" d="M 233.164062 152.574219 C 233.253906 152.824219 233.367188 153.058594 233.503906 153.285156 C 233.640625 153.507812 233.800781 153.71875 233.976562 153.914062 C 234.15625 154.109375 234.351562 154.28125 234.5625 154.4375 C 234.777344 154.59375 235.003906 154.726562 235.242188 154.839844 C 235.480469 154.949219 235.726562 155.039062 235.984375 155.101562 C 236.238281 155.164062 236.5 155.199219 236.761719 155.210938 C 237.027344 155.222656 237.289062 155.210938 237.546875 155.167969 C 237.808594 155.128906 238.0625 155.066406 238.3125 154.976562 L 238.5625 154.882812 C 238.8125 154.792969 239.046875 154.679688 239.273438 154.542969 C 239.496094 154.40625 239.707031 154.25 239.902344 154.070312 C 240.097656 153.890625 240.269531 153.695312 240.425781 153.484375 C 240.582031 153.269531 240.714844 153.046875 240.828125 152.804688 C 240.9375 152.566406 241.027344 152.320312 241.089844 152.0625 C 241.152344 151.808594 241.1875 151.546875 241.199219 151.285156 C 241.210938 151.019531 241.195312 150.757812 241.15625 150.496094 C 241.117188 150.238281 241.050781 149.984375 240.960938 149.734375 C 240.871094 149.488281 240.757812 149.25 240.621094 149.023438 C 240.484375 148.800781 240.328125 148.589844 240.148438 148.394531 C 239.972656 148.199219 239.777344 148.023438 239.5625 147.871094 C 239.351562 147.714844 239.125 147.578125 238.886719 147.46875 C 238.648438 147.355469 238.398438 147.269531 238.144531 147.207031 C 237.886719 147.144531 237.628906 147.105469 237.363281 147.09375 C 237.101562 147.082031 236.839844 147.097656 236.578125 147.136719 C 236.316406 147.175781 236.0625 147.242188 235.816406 147.332031 L 235.5625 147.421875 C 235.316406 147.511719 235.078125 147.625 234.851562 147.761719 C 234.625 147.898438 234.417969 148.058594 234.222656 148.234375 C 234.027344 148.414062 233.851562 148.609375 233.695312 148.824219 C 233.539062 149.035156 233.40625 149.261719 233.296875 149.5 C 233.183594 149.742188 233.097656 149.988281 233.035156 150.246094 C 232.972656 150.5 232.933594 150.761719 232.921875 151.023438 C 232.910156 151.289062 232.925781 151.550781 232.96875 151.8125 C 233.007812 152.074219 233.074219 152.328125 233.164062 152.574219 Z M 233.164062 152.574219 " fill-opacity="1" fill-rule="nonzero"/><g clip-path="url(#700fbc5c68)"><path fill="#ffffff" d="M 169.453125 158.371094 L 159.382812 154.707031 C 159.136719 154.617188 158.882812 154.550781 158.621094 154.511719 C 158.359375 154.472656 158.097656 154.457031 157.835938 154.46875 C 157.570312 154.480469 157.308594 154.519531 157.054688 154.582031 C 156.796875 154.644531 156.550781 154.730469 156.3125 154.84375 C 156.070312 154.953125 155.847656 155.085938 155.632812 155.242188 C 155.421875 155.398438 155.226562 155.574219 155.046875 155.769531 C 154.867188 155.964844 154.710938 156.175781 154.574219 156.398438 C 154.4375 156.625 154.324219 156.863281 154.234375 157.109375 C 154.144531 157.359375 154.078125 157.613281 154.039062 157.871094 C 153.996094 158.132812 153.984375 158.394531 153.996094 158.660156 C 154.007812 158.921875 154.042969 159.183594 154.105469 159.441406 C 154.167969 159.695312 154.257812 159.945312 154.367188 160.183594 C 154.480469 160.421875 154.613281 160.648438 154.769531 160.859375 C 154.925781 161.074219 155.101562 161.269531 155.296875 161.445312 C 155.488281 161.625 155.699219 161.78125 155.925781 161.917969 C 156.152344 162.058594 156.386719 162.171875 156.636719 162.261719 L 162.929688 164.546875 L 155.382812 185.277344 C 151.671875 184.199219 147.898438 183.40625 144.066406 182.902344 C 140.234375 182.394531 136.386719 182.179688 132.519531 182.253906 C 128.65625 182.328125 124.820312 182.695312 121.011719 183.351562 C 117.199219 184.011719 113.460938 184.949219 109.796875 186.171875 C 104.664062 187.875 99.402344 188.957031 94.015625 189.417969 L 110.085938 145.3125 L 116.378906 147.605469 C 116.628906 147.695312 116.882812 147.757812 117.140625 147.800781 C 117.402344 147.839844 117.664062 147.855469 117.929688 147.84375 C 118.191406 147.832031 118.453125 147.792969 118.710938 147.730469 C 118.964844 147.667969 119.214844 147.582031 119.453125 147.46875 C 119.691406 147.359375 119.917969 147.222656 120.128906 147.066406 C 120.34375 146.914062 120.539062 146.738281 120.714844 146.542969 C 120.894531 146.347656 121.050781 146.136719 121.1875 145.910156 C 121.324219 145.6875 121.441406 145.449219 121.53125 145.203125 C 121.621094 144.953125 121.683594 144.699219 121.726562 144.4375 C 121.765625 144.175781 121.78125 143.914062 121.769531 143.652344 C 121.757812 143.386719 121.71875 143.128906 121.65625 142.871094 C 121.59375 142.617188 121.507812 142.367188 121.394531 142.128906 C 121.285156 141.890625 121.148438 141.664062 120.992188 141.449219 C 120.835938 141.238281 120.664062 141.042969 120.46875 140.863281 C 120.273438 140.6875 120.0625 140.527344 119.835938 140.390625 C 119.613281 140.253906 119.375 140.140625 119.128906 140.050781 L 109.054688 136.386719 C 108.808594 136.296875 108.554688 136.230469 108.292969 136.191406 C 108.035156 136.152344 107.773438 136.136719 107.507812 136.148438 C 107.246094 136.160156 106.984375 136.195312 106.730469 136.257812 C 106.472656 136.320312 106.226562 136.40625 105.984375 136.515625 C 105.746094 136.628906 105.519531 136.761719 105.308594 136.914062 C 105.09375 137.070312 104.898438 137.246094 104.71875 137.441406 C 104.542969 137.632812 104.382812 137.84375 104.246094 138.066406 C 104.109375 138.292969 103.996094 138.527344 103.902344 138.777344 L 78.25 209.261719 C 77.875 210.292969 77.542969 211.34375 77.265625 212.40625 C 76.984375 213.472656 76.75 214.546875 76.570312 215.628906 C 76.386719 216.714844 76.253906 217.804688 76.171875 218.902344 C 76.089844 220 76.054688 221.097656 76.074219 222.199219 C 76.089844 223.296875 76.15625 224.394531 76.273438 225.488281 C 76.390625 226.582031 76.558594 227.667969 76.777344 228.746094 C 76.992188 229.824219 77.257812 230.890625 77.570312 231.945312 C 77.886719 233 78.246094 234.039062 78.65625 235.058594 C 79.0625 236.082031 79.519531 237.082031 80.019531 238.0625 C 80.519531 239.042969 81.0625 239.996094 81.648438 240.925781 C 82.234375 241.855469 82.863281 242.757812 83.535156 243.632812 C 84.203125 244.503906 84.910156 245.34375 85.65625 246.152344 C 86.402344 246.960938 87.183594 247.734375 88 248.472656 C 88.820312 249.207031 89.667969 249.90625 90.546875 250.566406 C 91.429688 251.226562 92.335938 251.84375 93.273438 252.417969 C 94.210938 252.996094 95.171875 253.527344 96.15625 254.015625 L 85.476562 283.371094 L 52.65625 298.675781 C 52.292969 298.84375 51.964844 299.0625 51.667969 299.328125 C 51.375 299.59375 51.121094 299.894531 50.917969 300.234375 C 50.710938 300.574219 50.558594 300.9375 50.457031 301.324219 C 50.359375 301.707031 50.320312 302.097656 50.335938 302.496094 C 50.355469 302.894531 50.429688 303.28125 50.5625 303.65625 C 50.695312 304.03125 50.878906 304.378906 51.113281 304.699219 C 51.347656 305.019531 51.625 305.296875 51.941406 305.535156 C 52.261719 305.773438 52.609375 305.960938 52.980469 306.097656 L 103.335938 324.417969 C 103.78125 324.578125 104.238281 324.65625 104.710938 324.65625 C 105.050781 324.65625 105.382812 324.617188 105.710938 324.53125 C 106.039062 324.449219 106.347656 324.324219 106.644531 324.164062 C 106.941406 324 107.210938 323.804688 107.460938 323.574219 C 107.707031 323.34375 107.921875 323.085938 108.101562 322.800781 C 108.285156 322.515625 108.425781 322.210938 108.53125 321.890625 C 108.636719 321.570312 108.699219 321.238281 108.722656 320.902344 C 108.746094 320.566406 108.726562 320.230469 108.664062 319.898438 C 108.601562 319.566406 108.496094 319.25 108.355469 318.941406 L 93.027344 286.121094 L 103.710938 256.765625 C 104.78125 257.023438 105.859375 257.234375 106.949219 257.398438 C 108.035156 257.558594 109.128906 257.667969 110.230469 257.730469 C 111.328125 257.792969 112.425781 257.804688 113.527344 257.765625 C 114.628906 257.726562 115.722656 257.636719 116.816406 257.496094 C 117.90625 257.359375 118.988281 257.167969 120.0625 256.929688 C 121.140625 256.691406 122.199219 256.40625 123.25 256.070312 C 124.296875 255.734375 125.328125 255.355469 126.339844 254.925781 C 127.355469 254.496094 128.347656 254.023438 129.316406 253.5 C 130.289062 252.980469 131.230469 252.417969 132.152344 251.8125 C 133.070312 251.207031 133.957031 250.5625 134.820312 249.875 C 135.679688 249.1875 136.503906 248.460938 137.296875 247.699219 C 138.09375 246.9375 138.847656 246.140625 139.570312 245.308594 C 140.289062 244.476562 140.972656 243.613281 141.613281 242.71875 C 142.257812 241.824219 142.855469 240.902344 143.414062 239.953125 C 143.972656 239.007812 144.484375 238.035156 144.953125 237.039062 C 145.421875 236.042969 145.847656 235.027344 146.222656 233.992188 L 171.855469 163.523438 C 171.945312 163.277344 172.011719 163.023438 172.050781 162.761719 C 172.089844 162.5 172.105469 162.238281 172.09375 161.976562 C 172.082031 161.710938 172.042969 161.453125 171.980469 161.195312 C 171.917969 160.9375 171.832031 160.691406 171.71875 160.453125 C 171.609375 160.210938 171.476562 159.984375 171.320312 159.773438 C 171.164062 159.558594 170.988281 159.363281 170.792969 159.1875 C 170.601562 159.007812 170.390625 158.851562 170.164062 158.714844 C 169.9375 158.574219 169.703125 158.460938 169.453125 158.371094 Z M 64.839844 301.859375 L 86.761719 291.648438 L 96.9375 313.546875 Z M 138.652344 231.246094 C 138.347656 232.121094 137.996094 232.980469 137.605469 233.820312 C 137.214844 234.664062 136.78125 235.484375 136.308594 236.28125 C 135.835938 237.082031 135.324219 237.855469 134.773438 238.601562 C 134.222656 239.351562 133.640625 240.070312 133.019531 240.761719 C 132.398438 241.449219 131.746094 242.109375 131.058594 242.734375 C 130.371094 243.359375 129.65625 243.949219 128.914062 244.503906 C 128.167969 245.058594 127.398438 245.574219 126.601562 246.054688 C 125.808594 246.53125 124.988281 246.96875 124.152344 247.367188 C 123.3125 247.765625 122.457031 248.121094 121.582031 248.433594 C 120.707031 248.746094 119.820312 249.015625 118.917969 249.238281 C 118.019531 249.464844 117.109375 249.644531 116.191406 249.777344 C 115.273438 249.914062 114.351562 250.003906 113.421875 250.046875 C 112.496094 250.089844 111.566406 250.085938 110.640625 250.039062 C 109.714844 249.988281 108.792969 249.894531 107.875 249.753906 C 106.957031 249.617188 106.046875 249.429688 105.148438 249.199219 C 104.25 248.972656 103.363281 248.699219 102.492188 248.378906 C 101.617188 248.0625 100.761719 247.703125 99.925781 247.300781 C 99.089844 246.898438 98.273438 246.457031 97.484375 245.972656 C 96.691406 245.492188 95.921875 244.96875 95.179688 244.410156 C 94.441406 243.851562 93.726562 243.257812 93.046875 242.628906 C 92.363281 242 91.714844 241.339844 91.097656 240.644531 C 90.480469 239.949219 89.898438 239.230469 89.351562 238.476562 C 88.808594 237.726562 88.300781 236.949219 87.832031 236.148438 C 87.363281 235.347656 86.933594 234.523438 86.546875 233.679688 C 86.160156 232.835938 85.816406 231.976562 85.515625 231.097656 C 85.210938 230.222656 84.953125 229.332031 84.742188 228.425781 C 84.527344 227.523438 84.359375 226.613281 84.234375 225.691406 C 84.113281 224.769531 84.035156 223.847656 84.003906 222.917969 C 83.96875 221.992188 83.984375 221.066406 84.042969 220.136719 C 84.105469 219.210938 84.210938 218.292969 84.359375 217.375 C 84.511719 216.460938 84.707031 215.554688 84.949219 214.65625 C 85.191406 213.761719 85.472656 212.878906 85.800781 212.007812 L 91.046875 197.660156 C 98.332031 197.382812 105.433594 196.097656 112.351562 193.800781 C 115.59375 192.722656 118.894531 191.890625 122.261719 191.304688 C 125.625 190.722656 129.015625 190.390625 132.429688 190.3125 C 135.847656 190.234375 139.25 190.410156 142.636719 190.839844 C 146.027344 191.269531 149.363281 191.949219 152.648438 192.878906 Z M 138.652344 231.246094 " fill-opacity="1" fill-rule="nonzero"/></g><path fill="#ffffff" d="M 136.375 154.882812 L 136.628906 154.976562 C 136.875 155.066406 137.128906 155.128906 137.390625 155.171875 C 137.652344 155.210938 137.914062 155.226562 138.179688 155.214844 C 138.441406 155.203125 138.703125 155.164062 138.957031 155.101562 C 139.214844 155.039062 139.460938 154.953125 139.699219 154.839844 C 139.941406 154.730469 140.167969 154.59375 140.378906 154.4375 C 140.589844 154.28125 140.785156 154.109375 140.964844 153.914062 C 141.144531 153.71875 141.300781 153.507812 141.4375 153.28125 C 141.574219 153.058594 141.6875 152.820312 141.777344 152.574219 C 141.867188 152.324219 141.933594 152.070312 141.972656 151.808594 C 142.015625 151.546875 142.027344 151.285156 142.015625 151.023438 C 142.003906 150.757812 141.96875 150.5 141.90625 150.242188 C 141.84375 149.988281 141.753906 149.738281 141.644531 149.5 C 141.53125 149.261719 141.398438 149.035156 141.242188 148.820312 C 141.085938 148.609375 140.910156 148.414062 140.714844 148.234375 C 140.523438 148.058594 140.3125 147.898438 140.085938 147.761719 C 139.859375 147.625 139.625 147.511719 139.375 147.421875 L 139.125 147.332031 C 138.875 147.242188 138.621094 147.175781 138.363281 147.136719 C 138.101562 147.097656 137.839844 147.082031 137.574219 147.09375 C 137.3125 147.105469 137.050781 147.144531 136.796875 147.207031 C 136.539062 147.269531 136.292969 147.355469 136.054688 147.46875 C 135.816406 147.578125 135.589844 147.714844 135.375 147.871094 C 135.164062 148.023438 134.96875 148.199219 134.789062 148.394531 C 134.613281 148.589844 134.453125 148.800781 134.316406 149.023438 C 134.179688 149.25 134.066406 149.488281 133.976562 149.734375 C 133.886719 149.984375 133.824219 150.238281 133.78125 150.496094 C 133.742188 150.757812 133.726562 151.019531 133.738281 151.285156 C 133.75 151.546875 133.789062 151.808594 133.851562 152.0625 C 133.914062 152.320312 134 152.566406 134.113281 152.804688 C 134.222656 153.046875 134.355469 153.269531 134.511719 153.484375 C 134.667969 153.695312 134.84375 153.890625 135.039062 154.070312 C 135.230469 154.25 135.441406 154.40625 135.667969 154.542969 C 135.890625 154.679688 136.128906 154.792969 136.375 154.882812 Z M 136.375 154.882812 " fill-opacity="1" fill-rule="nonzero"/></svg>